<svg width="64" height="49" viewBox="0 0 64 49" fill="none" xmlns="http://www.w3.org/2000/svg">
<g id="image">
<path id="Vector" d="M18.0106 14.1692C15.7292 10.5909 10.9792 9.53957 7.40094 11.8209C3.8227 14.1023 2.77131 18.8524 5.05266 22.4307L17.6804 42.2369C19.9616 45.8151 24.7118 46.8665 28.2901 44.5851C31.8683 42.3037 32.9197 37.5537 30.6383 33.9753L18.0106 14.1692Z" stroke="#333C6A" stroke-width="2.0569" stroke-miterlimit="10"/>
<path id="Vector_2" d="M11.3623 32.3138L24.3209 24.0492" stroke="#333C6A" stroke-width="2.0569" stroke-miterlimit="10"/>
<path id="Vector_3" d="M35.7561 19.0029C40.4257 19.0029 44.211 15.2174 44.211 10.5479C44.211 5.87835 40.4257 2.09293 35.7561 2.09293C31.0865 2.09293 27.301 5.87835 27.301 10.5479C27.301 15.2174 31.0865 19.0029 35.7561 19.0029Z" stroke="#333C6A" stroke-width="2.0569" stroke-miterlimit="10"/>
<path id="Vector_4" d="M53.7884 32.2604C59.074 27.6965 61.4198 21.7511 59.0278 18.9809C56.6359 16.2108 50.412 17.665 45.1265 22.229C39.8409 26.7929 37.4952 32.7383 39.8871 35.5086C42.2792 38.2787 48.5029 36.8244 53.7884 32.2604Z" stroke="#333C6A" stroke-width="2.0569" stroke-miterlimit="10"/>
</g>
</svg>
