<svg width="33" height="37" viewBox="0 0 33 37" fill="none" xmlns="http://www.w3.org/2000/svg">
<g id="Frame">
<path id="Vector" fill-rule="evenodd" clip-rule="evenodd" d="M30.9035 20.139C30.5393 19.2907 30.3639 18.3734 30.3895 17.4506C30.4151 16.5277 30.641 15.6213 31.0515 14.7945C31.4416 13.8943 31.6151 12.9153 31.5587 11.9359C31.5024 10.9565 31.2175 10.004 30.7267 9.1545C30.236 8.30503 29.5531 7.58231 28.7329 7.04416C27.9126 6.50603 26.9777 6.1675 26.0031 6.0556C25.0168 5.99007 24.0588 5.69894 23.2027 5.2046C22.3467 4.71025 21.6156 4.02581 21.0659 3.20426C20.4581 2.39338 19.6643 1.74056 18.7513 1.30081C17.8384 0.861055 16.8331 0.647369 15.8202 0.677623C14.8073 0.707877 13.8165 0.981228 12.9315 1.47468C12.0463 1.96814 11.2929 2.66713 10.7346 3.51284C10.181 4.25124 9.47399 4.86087 8.66215 5.29982C7.85031 5.73877 6.95302 5.99667 6.032 6.0556C5.05798 6.16874 4.12388 6.50799 3.30437 7.04642C2.48485 7.58487 1.80267 8.30752 1.31216 9.1566C0.821665 10.0057 0.536426 10.9578 0.479393 11.9367C0.422361 12.9156 0.595118 13.8942 0.983696 14.7945C1.42085 15.6814 1.64816 16.6571 1.64816 17.6459C1.64816 18.6347 1.42085 19.6101 0.983696 20.497C0.595263 21.3977 0.422646 22.3768 0.479695 23.356C0.536743 24.3352 0.821766 25.2875 1.31216 26.137C1.80256 26.9865 2.48476 27.7098 3.30421 28.2488C4.12366 28.788 5.05776 29.128 6.032 29.2421C7.01791 29.3065 7.97576 29.5965 8.83181 30.0898C9.68785 30.5831 10.4192 31.2665 10.9692 32.0873C11.5551 32.8738 12.3167 33.5125 13.1932 33.9526C14.0697 34.3926 15.0368 34.6217 16.0176 34.6217C16.9983 34.6217 17.9655 34.3926 18.8419 33.9526C19.7184 33.5125 20.48 32.8738 21.0659 32.0873C21.6156 31.2662 22.3468 30.5825 23.2028 30.0892C24.059 29.5958 25.0171 29.306 26.0031 29.2421C27.0096 29.1215 27.9724 28.7608 28.8102 28.1901C29.6479 27.6193 30.336 26.8555 30.8165 25.9629C31.297 25.0702 31.5557 24.0751 31.5708 23.0614C31.5859 22.0479 31.3571 21.0455 30.9035 20.139Z" fill="#B7FFB0"/>
<path id="Vector_2" d="M8.66711 17.7323L14.0981 22.83L23.3801 11.3015" stroke="#486645" stroke-width="2.90909" stroke-miterlimit="10"/>
</g>
</svg>
