<svg width="161" height="33" viewBox="0 0 161 33" fill="none" xmlns="http://www.w3.org/2000/svg">
<path id="Vector" d="M18.3502 30.3189C18.3334 30.5915 18.3167 30.8474 18.3167 31.0797C18.3074 31.5042 18.3569 31.9279 18.464 32.3386C17.012 32.278 15.5767 32.2444 14.1414 32.2444H5.36603C3.91406 32.2444 2.44646 32.2759 0.963257 32.3386C1.05693 30.2684 1.15063 28.2016 1.23092 26.1447C1.31121 24.088 1.3614 22.5967 1.3614 20.4592V12.0638C1.3614 9.91276 1.31121 10.2326 1.23092 8.16231C1.15063 6.09207 1.05693 4.01847 0.963257 1.9314C2.41524 1.99873 3.8505 2.05932 5.28575 2.10981C6.72099 2.1603 8.15625 2.17376 9.60823 2.17376C11.0602 2.17376 12.4988 2.17376 13.9173 2.10981C15.3359 2.04585 16.7745 1.99873 18.2264 1.9314C18.0324 2.89558 18.0324 3.88911 18.2264 4.8533C17.186 4.78934 16.2458 4.72538 15.3994 4.66479C14.5529 4.60419 13.6464 4.53687 12.6895 4.47292C11.7327 4.40896 10.6822 4.36183 9.57809 4.29787C8.47405 4.23391 7.08899 4.21708 5.52661 4.21708C5.49316 5.26061 5.44631 6.23682 5.39614 7.1861C5.34595 8.13538 5.33261 10.9967 5.34933 12.2085C5.36606 13.4204 5.38278 14.3057 5.38278 14.9419C6.8013 14.9419 8.07931 14.9218 9.19338 14.8915C10.3075 14.8612 11.3479 14.8275 12.288 14.7635C13.2282 14.6996 14.0912 14.6693 14.8742 14.6188C15.657 14.5682 16.4064 14.5044 17.1223 14.4437C16.9305 15.424 16.9305 16.4324 17.1223 17.4128C16.2793 17.3151 15.3058 17.2377 14.205 17.1704C13.1043 17.103 11.9869 17.0592 10.8595 17.0592L7.71798 17.0122C6.7143 16.9954 5.94483 16.9785 5.37608 16.9785C5.37608 17.268 5.35936 17.5878 5.34263 17.9311C5.32591 18.2745 5.34263 18.6919 5.34263 19.217C5.34263 19.217 5.34263 26.2323 5.34263 27.434C5.34263 28.6358 5.38947 29.5312 5.42292 30.164H8.80528C10.0331 30.164 11.2308 30.164 12.4118 30.1001C13.5928 30.0361 14.6835 29.989 15.7574 29.9083C16.6744 29.8465 17.5864 29.724 18.4874 29.5413C18.4122 29.7944 18.3662 30.0553 18.3502 30.3189ZM26.6773 10.9126C26.6773 9.63 26.7242 8.33736 26.7577 7.07502C26.791 5.81267 26.8345 4.5941 26.8814 3.45631C26.9283 2.31852 26.9951 1.31875 27.0587 0.517578C26.3441 0.659368 25.6189 0.739325 24.8907 0.756579C24.1617 0.737658 23.4354 0.657717 22.7195 0.517578C22.7864 1.31875 22.85 2.31179 22.8968 3.45631C22.9437 4.60083 22.9905 5.81267 23.0239 7.07502C23.0574 8.33736 23.0875 9.6098 23.1043 10.9126C23.121 12.2152 23.121 13.4238 23.1344 14.5312V18.4395C23.1344 19.5503 23.1344 20.7521 23.1009 22.038C23.0674 23.3239 23.0708 24.6233 23.0206 25.8755C22.9704 27.1277 22.9437 28.3295 22.8968 29.4706C22.85 30.6117 22.783 31.5577 22.7195 32.2949C23.4521 32.231 24.1882 32.1973 24.8907 32.1973C25.5933 32.1973 26.3026 32.231 27.0587 32.2949C26.9951 31.5409 26.9316 30.5882 26.8814 29.4706C26.8312 28.353 26.7877 27.1143 26.7577 25.8755C26.7275 24.6367 26.6941 23.3475 26.6773 22.038C26.6606 20.7285 26.6773 19.5503 26.6773 18.4395V14.4976C26.6606 13.4036 26.6606 12.1849 26.6773 10.8991V10.9126ZM36.4196 10.9126C36.4196 9.63 36.4698 8.33736 36.4998 7.07502C36.53 5.81267 36.5802 4.5941 36.627 3.45631C36.6739 2.31852 36.7374 1.31875 36.8043 0.517578C36.0886 0.659363 35.3623 0.739319 34.633 0.756579C33.9063 0.735985 33.1824 0.656058 32.4685 0.517578C32.532 1.31875 32.599 2.31179 32.6458 3.45631C32.6926 4.60083 32.7394 5.81267 32.7729 7.07502C32.8064 8.33736 32.8365 9.6098 32.8532 10.9126C32.87 12.2152 32.8834 13.4238 32.8767 14.5312V18.4395C32.8767 19.5503 32.8767 20.7521 32.8465 22.038C32.8164 23.3239 32.8131 24.6233 32.7662 25.8755C32.7194 27.1277 32.6892 28.3295 32.6391 29.4706C32.5889 30.6117 32.5287 31.5577 32.4618 32.2949C33.1978 32.231 33.9305 32.1973 34.633 32.1973C35.3356 32.1973 36.0449 32.231 36.8043 32.2949C36.7374 31.5409 36.6739 30.5882 36.627 29.4706C36.5802 28.353 36.5333 27.1143 36.4998 25.8755C36.4665 24.6367 36.4364 23.3475 36.4196 22.038C36.4029 20.7285 36.4029 19.5503 36.4029 18.4395V14.4976C36.4029 13.4036 36.4062 12.1849 36.4196 10.8991V10.9126ZM60.9259 14.8005C61.3331 16.0383 61.5387 17.3342 61.5347 18.6381C61.5347 18.9578 61.5347 19.281 61.5347 19.5907C61.5347 19.9004 61.4845 20.2169 61.4544 20.5434L56.2856 20.4457C54.5793 20.4166 52.8563 20.4009 51.1166 20.3986C50.046 20.3986 48.9922 20.4144 47.9551 20.4457L44.7968 20.5434C44.7595 20.7827 44.7438 21.0249 44.75 21.2671V21.8933C44.7427 23.0986 44.9315 24.2971 45.3088 25.4413C45.6466 26.4897 46.1957 27.4567 46.9213 28.2823C47.65 29.0928 48.5418 29.7377 49.5376 30.1741C50.665 30.663 51.8832 30.904 53.1106 30.8811C53.7891 30.8744 54.4638 30.7794 55.1179 30.5983C55.798 30.4196 56.46 30.1773 57.0952 29.8746C57.7339 29.5681 58.3431 29.203 58.9151 28.7839C59.4497 28.3886 59.9409 27.9372 60.3806 27.4374L60.6214 27.5788L60.3337 29.9553C59.2463 30.8055 58.0327 31.478 56.7372 31.9482C55.3093 32.4926 53.7946 32.7699 52.2676 32.7662C50.6482 32.7856 49.0382 32.5142 47.5134 31.965C46.1254 31.4604 44.8588 30.6666 43.7966 29.6356C42.7472 28.6153 41.926 27.3817 41.3877 26.0169C40.7763 24.608 40.4718 23.0837 40.4945 21.5465C40.4945 17.5676 41.4357 14.4381 43.3181 12.1581C45.2006 9.87797 47.9506 8.74355 51.5683 8.75477C53.0799 8.72196 54.5827 8.99438 55.9878 9.55594C57.1587 10.0414 58.216 10.7671 59.0925 11.6868C59.9131 12.5806 60.5378 13.638 60.9259 14.7904V14.8005ZM57.5468 18.7021C57.5391 17.7721 57.4642 16.8439 57.3227 15.9249C57.188 14.9711 56.8915 14.0477 56.4461 13.1949C56.0241 12.3569 55.3994 11.6392 54.6295 11.1078C53.8935 10.5658 52.8731 10.2897 51.6185 10.2897C50.5561 10.2537 49.5074 10.5385 48.6075 11.1078C47.8012 11.6497 47.1173 12.3562 46.6002 13.1814C46.059 14.0224 45.6494 14.9419 45.3856 15.908C45.1317 16.8215 44.9636 17.7569 44.8839 18.7021L47.9952 18.7996C49.0826 18.8333 50.1364 18.8468 51.1534 18.8468C52.224 18.8468 53.2913 18.8468 54.3953 18.7996L57.5468 18.7021ZM122.531 14.8005C122.935 16.0389 123.14 17.3345 123.136 18.6381C123.136 18.9746 123.136 19.281 123.136 19.5907C123.136 19.9004 123.089 20.2169 123.059 20.5434L117.888 20.4491C116.182 20.4177 114.458 20.4009 112.718 20.3986C111.65 20.3986 110.597 20.4155 109.561 20.4491L106.402 20.5434C106.363 20.7826 106.347 21.0248 106.352 21.2671V21.8933C106.348 23.0992 106.54 24.2976 106.921 25.4413C107.262 26.4881 107.811 27.4545 108.533 28.2823C109.264 29.088 110.156 29.7293 111.149 30.164C112.278 30.6518 113.495 30.8917 114.722 30.8676C115.392 30.863 116.058 30.7714 116.703 30.5949C117.383 30.4189 118.046 30.1777 118.68 29.8746C119.318 29.5683 119.926 29.2032 120.497 28.7839C121.035 28.3839 121.527 27.9256 121.966 27.4172L122.207 27.562L121.919 29.9386C120.83 30.7895 119.616 31.462 118.319 31.9313C116.891 32.4736 115.378 32.7495 113.853 32.746C112.234 32.7654 110.623 32.494 109.099 31.9448C107.71 31.4428 106.442 30.6487 105.382 29.6154C104.331 28.5957 103.511 27.3619 102.973 25.9966C102.358 24.5888 102.052 23.064 102.076 21.5263C102.076 17.5429 103.018 14.4134 104.9 12.1379C106.782 9.86227 109.53 8.72448 113.143 8.72448C114.655 8.692 116.159 8.96559 117.563 9.52901C118.735 10.0144 119.795 10.74 120.675 11.6598C121.506 12.5593 122.14 13.6264 122.531 14.7904V14.8005ZM119.165 18.6919C119.159 17.762 119.085 16.8339 118.944 15.9148C118.807 14.9611 118.51 14.0379 118.065 13.1848C117.644 12.3434 117.017 11.623 116.245 11.091C115.505 10.5523 114.488 10.2796 113.234 10.2796C112.172 10.2438 111.123 10.5286 110.222 11.0977C109.411 11.6373 108.719 12.3426 108.195 13.1679C107.659 14.012 107.25 14.9323 106.984 15.8979C106.725 16.8107 106.554 17.7463 106.472 18.6919L109.584 18.7861C110.667 18.8198 111.721 18.8367 112.742 18.8367C113.813 18.8367 114.88 18.8367 115.984 18.7861L119.165 18.6919ZM155.157 2.6888V2.71574V2.6888ZM159.372 31.2513C159.028 31.309 158.681 31.3417 158.332 31.349C157.375 31.349 156.626 31.1403 156.117 30.7229C155.579 30.2841 155.175 29.7004 154.953 29.0398C154.68 28.2824 154.524 27.488 154.488 26.6834C154.425 25.8014 154.408 24.9194 154.408 23.9904C154.408 22.93 154.408 21.7114 154.408 20.3481C154.408 18.9847 154.455 17.6552 154.488 16.4298C154.522 15.2045 154.569 14.1172 154.615 13.2016C154.628 12.6812 154.671 12.1621 154.742 11.6464H157.104C157.609 11.6464 158.091 11.6464 158.557 11.6464C159.021 11.6464 159.449 11.6969 159.864 11.7272C159.824 11.5701 159.808 11.4077 159.817 11.2458V10.2359C159.808 10.0573 159.824 9.87821 159.864 9.70405C158.731 9.77137 157.676 9.81514 156.719 9.83197C155.763 9.8488 155.093 9.8488 154.742 9.8488C154.805 8.64705 154.869 7.45204 154.916 6.27049C154.963 5.08893 155.046 3.91412 155.14 2.66861H154.856L150.841 4.35172C150.905 5.39526 150.951 6.40513 150.968 7.38134C150.985 8.35756 151.015 9.14526 151.049 9.80504C150.379 9.80504 149.309 9.75792 147.857 9.66029C147.891 9.81851 147.918 9.99688 147.938 10.1416C147.958 10.2864 147.938 10.4783 147.938 10.623C147.938 10.7678 147.938 11.0034 147.938 11.1852C147.938 11.3669 147.887 11.5554 147.857 11.7474C148.192 11.7137 148.496 11.6666 148.784 11.6666C149.071 11.6666 149.342 11.6497 149.597 11.6497H151.142C151.142 13.4641 151.142 15.1035 151.095 16.5779C151.049 18.0524 151.015 19.3887 150.968 20.6174C150.921 21.8461 150.871 22.9469 150.841 23.9837C150.811 25.0205 150.794 25.9428 150.794 26.8247C150.794 28.7671 151.269 30.2448 152.243 31.2581C153.216 32.2714 154.715 32.7662 156.742 32.7662C157.387 32.7603 158.029 32.6847 158.657 32.5406C159.325 32.3959 159.935 32.268 160.477 32.1704V30.9989C160.11 31.1108 159.735 31.1952 159.356 31.2513H159.372ZM136.328 8.69755C129.871 8.72784 126.553 12.4677 126.553 20.5097C126.553 24.1048 126.265 31.5678 126.188 32.2915C126.944 32.2444 127.412 32.1973 128.115 32.1973H128.496C129.199 32.1973 129.677 32.2444 130.427 32.2915C130.346 31.5678 130.059 24.3607 130.059 20.7487C130.059 13.7334 131.366 10.8419 136.137 10.8419C141.213 10.8419 141.992 15.1573 141.911 20.9406C141.832 27.185 141.628 31.8572 141.578 32.2881C142.333 32.2411 143.046 32.1906 143.749 32.1906C144.451 32.1906 145.167 32.2411 145.917 32.2881C145.837 31.5678 145.552 24.2092 145.552 21.0987C145.552 16.9684 145.773 8.69418 136.311 8.69418L136.328 8.69755ZM98.6839 22.0346C98.6839 17.9244 99.818 8.72784 89.9587 8.72784C84.9637 8.72784 82.6185 12.2085 82.0598 13.72C81.5011 12.2085 79.4268 8.72784 74.4185 8.72784C64.5558 8.72784 65.4357 17.9244 65.4357 22.0346C65.4357 23.1925 65.148 31.5712 65.0676 32.2915C65.8171 32.2444 66.5363 32.1973 67.2389 32.1973C67.9415 32.1973 68.6507 32.2444 69.4069 32.2915C69.3768 31.8572 69.0723 27.5553 69.0723 18.9209C69.0723 13.1747 70.745 10.8419 74.1475 10.8419C79.7346 10.8419 80.0658 17.5373 80.1127 23.1556C80.1127 26.7608 79.9688 31.5712 79.8885 32.3016C80.638 32.2545 81.1196 32.204 81.8223 32.204H82.2003C82.8995 32.204 83.3713 32.2545 84.1307 32.3016C84.0505 31.5678 83.873 26.7507 83.9065 23.1556C83.9534 17.5373 84.2879 10.8419 89.8717 10.8419C93.2708 10.8419 94.9469 13.1713 94.9469 18.9209C94.9469 27.5553 94.6592 31.8572 94.6124 32.2915C95.3818 32.2444 96.1145 32.1973 96.7836 32.1973C97.4527 32.1973 98.1955 32.2444 98.9549 32.2915C98.8879 31.551 98.6003 23.1892 98.6671 22.0312L98.6839 22.0346Z" fill="#EEEEEE"/>
</svg>
