<svg width="213" height="44" viewBox="0 0 213 44" fill="none" xmlns="http://www.w3.org/2000/svg">
<g clip-path="url(#clip0_1_523)">
<path fill-rule="evenodd" clip-rule="evenodd" d="M26.2744 3.23967C23.0662 -1.07989 16.6053 -1.07989 13.3971 3.23967L13.1035 3.63508C11.7835 5.41236 9.78906 6.56515 7.59166 6.82098L7.10277 6.8779C1.76212 7.49968 -1.46831 13.1014 0.664152 18.0427L0.859358 18.4951C1.73676 20.5282 1.73676 22.8337 0.859356 24.8669L0.664151 25.3192C-1.46831 30.2605 1.76213 35.8622 7.10278 36.484L7.59166 36.5409C9.78907 36.7968 11.7835 37.9496 13.1035 39.7268L13.3971 40.1222C16.6053 44.4418 23.0662 44.4418 26.2744 40.1222L26.5681 39.7268C27.8881 37.9496 29.8825 36.7968 32.0799 36.5409L32.5688 36.484C37.9094 35.8622 41.1399 30.2605 39.0074 25.3192L38.8122 24.8669C37.9348 22.8337 37.9348 20.5282 38.8122 18.4951L39.0074 18.0427C41.1399 13.1014 37.9094 7.49968 32.5688 6.8779L32.0799 6.82098C29.8825 6.56515 27.8881 5.41236 26.5681 3.63508L26.2744 3.23967ZM26.9181 7.99208C25.7514 3.54327 19.8615 2.60054 17.3676 6.46343C16.117 8.40035 13.7574 9.30323 11.5353 8.69506C7.10357 7.48218 3.34314 12.1175 5.43767 16.2112C6.48791 18.2639 6.08911 20.7612 4.45196 22.3838C1.18693 25.6197 3.31638 31.1977 7.90489 31.4286C10.2057 31.5444 12.1665 33.1388 12.7515 35.3695C13.9181 39.8183 19.808 40.761 22.302 36.8981C23.5525 34.9612 25.9122 34.0583 28.1343 34.6665C32.566 35.8794 36.3264 31.2441 34.2319 27.1503C33.1817 25.0976 33.5805 22.6004 35.2176 20.9778C38.4826 17.7419 36.3532 12.1639 31.7647 11.933C29.4639 11.8172 27.5031 10.2228 26.9181 7.99208Z" fill="#2C2C2E"/>
</g>
<g clip-path="url(#clip1_1_523)">
<path d="M69.8283 35.8645C69.8115 36.1373 69.7948 36.3933 69.7948 36.6257C69.7855 37.0504 69.835 37.4743 69.9421 37.8852C68.4894 37.8246 67.0535 37.7909 65.6175 37.7909H56.838C55.3853 37.7909 53.917 37.8224 52.4331 37.8852C52.5268 35.814 52.6206 33.7462 52.7009 31.6884C52.7812 29.6307 52.8314 28.1387 52.8314 26.0002V17.6008C52.8314 15.4487 52.7812 15.7687 52.7009 13.6974C52.6206 11.6262 52.5268 9.55162 52.4331 7.46356C53.8858 7.53092 55.3217 7.59154 56.7576 7.64206C58.1936 7.69257 59.6295 7.70604 61.0822 7.70604C62.5348 7.70604 63.9741 7.70604 65.3933 7.64206C66.8125 7.57807 68.2518 7.53092 69.7044 7.46356C69.5103 8.4282 69.5103 9.4222 69.7044 10.3868C68.6635 10.3229 67.7229 10.2589 66.8761 10.1982C66.0292 10.1376 65.1222 10.0703 64.1649 10.0063C63.2076 9.94229 62.1566 9.89514 61.052 9.83115C59.9474 9.76716 58.5617 9.75032 56.9986 9.75032C56.9652 10.7944 56.9183 11.771 56.8681 12.7208C56.8179 13.6705 56.8045 16.5332 56.8213 17.7456C56.838 18.958 56.8547 19.8438 56.8547 20.4803C58.2739 20.4803 59.5525 20.4601 60.6671 20.4298C61.7817 20.3995 62.8227 20.3658 63.7632 20.3018C64.7038 20.2378 65.5673 20.2075 66.3506 20.157C67.1338 20.1064 67.8836 20.0425 68.5998 19.9818C68.4079 20.9626 68.4079 21.9715 68.5998 22.9523C67.7564 22.8546 66.7824 22.7771 65.6811 22.7098C64.5799 22.6424 63.462 22.5986 62.334 22.5986L59.191 22.5515C58.1869 22.5347 57.417 22.5178 56.848 22.5178C56.848 22.8075 56.8313 23.1274 56.8146 23.4709C56.7978 23.8144 56.8146 24.232 56.8146 24.7574C56.8146 24.7574 56.8146 31.776 56.8146 32.9783C56.8146 34.1806 56.8614 35.0765 56.8949 35.7096H60.2788C61.5073 35.7096 62.7055 35.7096 63.8871 35.6456C65.0686 35.5816 66.1598 35.5345 67.2342 35.4537C68.1517 35.3919 69.0641 35.2693 69.9655 35.0866C69.8903 35.3398 69.8443 35.6008 69.8283 35.8645ZM78.1593 16.449C78.1593 15.1658 78.2062 13.8726 78.2397 12.6096C78.2731 11.3467 78.3166 10.1275 78.3635 8.98919C78.4104 7.85086 78.4773 6.85062 78.5409 6.04907C77.826 6.19093 77.1004 6.27092 76.3719 6.28819C75.6425 6.26926 74.9159 6.18928 74.1996 6.04907C74.2666 6.85062 74.3302 7.84413 74.377 8.98919C74.4239 10.1343 74.4708 11.3467 74.5042 12.6096C74.5377 13.8726 74.5678 15.1456 74.5846 16.449C74.6013 17.7523 74.6013 18.9614 74.6147 20.0694V23.9795C74.6147 25.0908 74.6147 26.2932 74.5812 27.5797C74.5477 28.8662 74.5511 30.1662 74.5009 31.419C74.4507 32.6718 74.4239 33.8742 74.377 35.0158C74.3302 36.1575 74.2632 37.1039 74.1996 37.8415C74.9326 37.7775 75.669 37.7438 76.3719 37.7438C77.0748 37.7438 77.7844 37.7775 78.5409 37.8415C78.4773 37.0871 78.4137 36.134 78.3635 35.0158C78.3133 33.8977 78.2698 32.6584 78.2397 31.419C78.2095 30.1796 78.1761 28.8898 78.1593 27.5797C78.1426 26.2696 78.1593 25.0908 78.1593 23.9795V20.0357C78.1426 18.9412 78.1426 17.722 78.1593 16.4355V16.449ZM87.9062 16.449C87.9062 15.1658 87.9564 13.8726 87.9865 12.6096C88.0167 11.3467 88.0669 10.1275 88.1137 8.98919C88.1606 7.85086 88.2242 6.85062 88.2911 6.04907C87.5751 6.19092 86.8484 6.27092 86.1188 6.28819C85.3917 6.26758 84.6675 6.18762 83.9532 6.04907C84.0168 6.85062 84.0838 7.84413 84.1306 8.98919C84.1775 10.1343 84.2243 11.3467 84.2578 12.6096C84.2913 13.8726 84.3214 15.1456 84.3381 16.449C84.3549 17.7523 84.3683 18.9614 84.3616 20.0694V23.9795C84.3616 25.0908 84.3616 26.2932 84.3314 27.5797C84.3013 28.8662 84.298 30.1662 84.2511 31.419C84.2043 32.6718 84.1741 33.8742 84.1239 35.0158C84.0737 36.1575 84.0135 37.1039 83.9465 37.8415C84.6829 37.7775 85.4159 37.7438 86.1188 37.7438C86.8217 37.7438 87.5313 37.7775 88.2911 37.8415C88.2242 37.0871 88.1606 36.134 88.1137 35.0158C88.0669 33.8977 88.02 32.6584 87.9865 31.419C87.9531 30.1796 87.923 28.8898 87.9062 27.5797C87.8895 26.2696 87.8895 25.0908 87.8895 23.9795V20.0357C87.8895 18.9412 87.8928 17.722 87.9062 16.4355V16.449ZM112.424 20.3388C112.831 21.5772 113.037 22.8737 113.033 24.1782C113.033 24.4981 113.033 24.8214 113.033 25.1313C113.033 25.4411 112.983 25.7577 112.953 26.0844L107.782 25.9867C106.075 25.9575 104.351 25.9418 102.61 25.9395C101.539 25.9395 100.485 25.9553 99.4472 25.9867L96.2874 26.0844C96.2501 26.3238 96.2344 26.5661 96.2406 26.8084V27.4349C96.2333 28.6408 96.4221 29.8399 96.7996 30.9846C97.1376 32.0335 97.6869 33.001 98.4129 33.827C99.1419 34.6378 100.034 35.2831 101.03 35.7197C102.158 36.2088 103.377 36.4499 104.605 36.427C105.284 36.4203 105.959 36.3252 106.613 36.1441C107.294 35.9653 107.956 35.7229 108.592 35.42C109.231 35.1134 109.84 34.7481 110.412 34.3288C110.947 33.9333 111.439 33.4817 111.879 32.9817L112.119 33.1231L111.832 35.5008C110.744 36.3514 109.529 37.0242 108.233 37.4946C106.805 38.0393 105.289 38.3167 103.762 38.313C102.141 38.3324 100.531 38.0609 99.0053 37.5114C97.6166 37.0066 96.3494 36.2124 95.2867 35.1809C94.2368 34.1601 93.4152 32.9259 92.8767 31.5605C92.265 30.1509 91.9603 28.6259 91.983 27.088C91.983 23.1072 92.9247 19.9762 94.808 17.6951C96.6914 15.4139 99.4427 14.2789 103.062 14.2902C104.574 14.2573 106.078 14.5299 107.484 15.0917C108.655 15.5774 109.713 16.3035 110.59 17.2236C111.411 18.1178 112.036 19.1757 112.424 20.3287V20.3388ZM109.043 24.2422C109.036 23.3118 108.961 22.3832 108.819 21.4637C108.684 20.5095 108.388 19.5856 107.942 18.7324C107.52 17.894 106.895 17.176 106.125 16.6443C105.388 16.1021 104.368 15.8259 103.112 15.8259C102.049 15.7898 101 16.0748 100.1 16.6443C99.2932 17.1865 98.609 17.8933 98.0916 18.7189C97.5502 19.5603 97.1404 20.4803 96.8765 21.4468C96.6224 22.3607 96.4543 23.2966 96.3745 24.2422L99.4873 24.3398C100.575 24.3735 101.629 24.387 102.647 24.387C103.718 24.387 104.786 24.387 105.89 24.3398L109.043 24.2422ZM174.058 20.3388C174.463 21.5778 174.668 22.874 174.664 24.1782C174.664 24.5149 174.664 24.8214 174.664 25.1313C174.664 25.4411 174.617 25.7577 174.587 26.0844L169.413 25.9901C167.706 25.9586 165.982 25.9418 164.241 25.9395C163.172 25.9395 162.119 25.9564 161.082 25.9901L157.922 26.0844C157.883 26.3237 157.867 26.566 157.872 26.8084V27.4349C157.868 28.6414 158.06 29.8404 158.441 30.9846C158.782 32.0319 159.331 32.9988 160.054 33.827C160.785 34.633 161.677 35.2746 162.671 35.7096C163.8 36.1976 165.018 36.4376 166.246 36.4135C166.916 36.4089 167.582 36.3172 168.228 36.1407C168.908 35.9646 169.571 35.7233 170.206 35.42C170.844 35.1136 171.452 34.7483 172.023 34.3288C172.562 33.9286 173.054 33.4701 173.493 32.9615L173.734 33.1063L173.446 35.484C172.357 36.3353 171.142 37.0082 169.844 37.4777C168.416 38.0202 166.902 38.2963 165.376 38.2928C163.756 38.3122 162.145 38.0407 160.62 37.4912C159.23 36.989 157.962 36.1945 156.901 35.1607C155.85 34.1405 155.029 32.9061 154.491 31.5402C153.876 30.1317 153.57 28.6062 153.594 27.0678C153.594 23.0825 154.536 19.9515 156.419 17.6749C158.302 15.3982 161.051 14.2599 164.666 14.2599C166.179 14.2274 167.683 14.5011 169.088 15.0648C170.261 15.5504 171.321 16.2764 172.201 17.1966C173.033 18.0965 173.667 19.1641 174.058 20.3287V20.3388ZM170.691 24.232C170.685 23.3017 170.611 22.3731 170.47 21.4536C170.333 20.4995 170.035 19.5758 169.59 18.7223C169.169 17.8805 168.542 17.1598 167.769 16.6275C167.029 16.0886 166.012 15.8158 164.757 15.8158C163.694 15.7799 162.645 16.0649 161.744 16.6342C160.932 17.1741 160.24 17.8797 159.716 18.7054C159.179 19.5499 158.77 20.4706 158.504 21.4367C158.245 22.3499 158.074 23.286 157.992 24.232L161.105 24.3263C162.189 24.36 163.243 24.3769 164.265 24.3769C165.336 24.3769 166.404 24.3769 167.508 24.3263L170.691 24.232ZM206.7 8.22132V8.24827V8.22132ZM210.917 36.7974C210.573 36.8551 210.225 36.8878 209.876 36.8951C208.919 36.8951 208.169 36.6863 207.66 36.2687C207.122 35.8297 206.718 35.2457 206.496 34.5848C206.223 33.8271 206.066 33.0323 206.03 32.2273C205.967 31.3449 205.95 30.4625 205.95 29.533C205.95 28.4721 205.95 27.253 205.95 25.889C205.95 24.525 205.997 23.1948 206.03 21.9689C206.064 20.743 206.111 19.6552 206.158 18.7391C206.171 18.2185 206.214 17.6991 206.285 17.1832H208.648C209.153 17.1832 209.635 17.1832 210.101 17.1832C210.566 17.1832 210.994 17.2337 211.409 17.264C211.369 17.1069 211.353 16.9444 211.362 16.7824V15.772C211.353 15.5933 211.369 15.4141 211.409 15.2399C210.275 15.3072 209.22 15.351 208.263 15.3679C207.306 15.3847 206.636 15.3847 206.285 15.3847C206.348 14.1824 206.412 12.9868 206.459 11.8047C206.506 10.6226 206.589 9.44722 206.683 8.20112H206.399L202.382 9.88503C202.446 10.9291 202.492 11.9394 202.509 12.9161C202.526 13.8928 202.556 14.6808 202.59 15.3409C201.92 15.3409 200.849 15.2938 199.396 15.1961C199.43 15.3544 199.457 15.5329 199.477 15.6777C199.497 15.8226 199.477 16.0145 199.477 16.1593C199.477 16.3042 199.477 16.5399 199.477 16.7218C199.477 16.9036 199.426 17.0922 199.396 17.2842C199.731 17.2505 200.036 17.2034 200.324 17.2034C200.611 17.2034 200.882 17.1865 201.137 17.1865H202.683C202.683 19.0018 202.683 20.6419 202.636 22.117C202.59 23.5922 202.556 24.9292 202.509 26.1584C202.462 27.3877 202.412 28.489 202.382 29.5263C202.352 30.5636 202.335 31.4864 202.335 32.3687C202.335 34.312 202.81 35.7904 203.784 36.8042C204.758 37.8179 206.258 38.313 208.286 38.313C208.931 38.3071 209.573 38.2314 210.201 38.0873C210.87 37.9425 211.48 37.8145 212.022 37.7169V36.5448C211.655 36.6568 211.28 36.7412 210.901 36.7974H210.917ZM187.862 14.2329C181.402 14.2632 178.082 18.0049 178.082 26.0507C178.082 29.6475 177.794 37.114 177.717 37.8381C178.473 37.7909 178.942 37.7438 179.645 37.7438H180.026C180.729 37.7438 181.208 37.7909 181.958 37.8381C181.877 37.114 181.59 29.9035 181.59 26.2898C181.59 19.2712 182.898 16.3783 187.671 16.3783C192.749 16.3783 193.529 20.6958 193.448 26.4818C193.368 32.7291 193.164 37.4036 193.114 37.8347C193.87 37.7876 194.583 37.7371 195.286 37.7371C195.989 37.7371 196.705 37.7876 197.455 37.8347C197.375 37.114 197.09 29.7519 197.09 26.64C197.09 22.5077 197.311 14.2295 187.845 14.2295L187.862 14.2329ZM150.2 27.5763C150.2 23.4642 151.335 14.2632 141.471 14.2632C136.473 14.2632 134.127 17.7456 133.568 19.2578C133.009 17.7456 130.934 14.2632 125.923 14.2632C116.056 14.2632 116.936 23.4642 116.936 27.5763C116.936 28.7348 116.648 37.1174 116.568 37.8381C117.318 37.7909 118.037 37.7438 118.74 37.7438C119.443 37.7438 120.153 37.7909 120.909 37.8381C120.879 37.4036 120.574 33.0996 120.574 24.4611C120.574 18.7122 122.248 16.3783 125.652 16.3783C131.242 16.3783 131.573 23.0769 131.62 28.6978C131.62 32.3047 131.476 37.1174 131.396 37.8482C132.146 37.801 132.627 37.7505 133.33 37.7505H133.709C134.408 37.7505 134.88 37.801 135.64 37.8482C135.56 37.114 135.382 32.2946 135.416 28.6978C135.463 23.0769 135.797 16.3783 141.384 16.3783C144.784 16.3783 146.461 18.7088 146.461 24.4611C146.461 33.0996 146.173 37.4036 146.127 37.8381C146.896 37.7909 147.629 37.7438 148.299 37.7438C148.968 37.7438 149.711 37.7909 150.471 37.8381C150.404 37.0972 150.116 28.7315 150.183 27.5729L150.2 27.5763Z" fill="#2C2C2E"/>
</g>
<defs>
<clipPath id="clip0_1_523">
<rect width="40" height="44" fill="white"/>
</clipPath>
<clipPath id="clip1_1_523">
<rect width="161" height="33" fill="white" transform="translate(52 5.5)"/>
</clipPath>
</defs>
</svg>
