<svg width="40" height="44" viewBox="0 0 40 44" fill="none" xmlns="http://www.w3.org/2000/svg">
<g id="Frame">
<path id="Vector" fill-rule="evenodd" clip-rule="evenodd" d="M26.2744 3.23967C23.0662 -1.07989 16.6053 -1.07989 13.3971 3.23967L13.1035 3.63508C11.7835 5.41236 9.78906 6.56515 7.59166 6.82098L7.10277 6.8779C1.76212 7.49968 -1.46831 13.1014 0.664152 18.0427L0.859358 18.4951C1.73676 20.5282 1.73676 22.8337 0.859356 24.8669L0.664151 25.3192C-1.46831 30.2605 1.76213 35.8622 7.10278 36.484L7.59166 36.5409C9.78907 36.7968 11.7835 37.9496 13.1035 39.7268L13.3971 40.1222C16.6053 44.4418 23.0662 44.4418 26.2744 40.1222L26.5681 39.7268C27.8881 37.9496 29.8825 36.7968 32.0799 36.5409L32.5688 36.484C37.9094 35.8622 41.1399 30.2605 39.0074 25.3192L38.8122 24.8669C37.9348 22.8337 37.9348 20.5282 38.8122 18.4951L39.0074 18.0427C41.1399 13.1014 37.9094 7.49968 32.5688 6.8779L32.0799 6.82098C29.8825 6.56515 27.8881 5.41236 26.5681 3.63508L26.2744 3.23967ZM26.9181 7.99208C25.7514 3.54327 19.8615 2.60054 17.3676 6.46343C16.117 8.40035 13.7574 9.30323 11.5353 8.69506C7.10357 7.48218 3.34314 12.1175 5.43767 16.2112C6.48791 18.2639 6.08911 20.7612 4.45196 22.3838C1.18693 25.6197 3.31638 31.1977 7.90489 31.4286C10.2057 31.5444 12.1665 33.1388 12.7515 35.3695C13.9181 39.8183 19.808 40.761 22.302 36.8981C23.5525 34.9612 25.9122 34.0583 28.1343 34.6665C32.566 35.8794 36.3264 31.2441 34.2319 27.1503C33.1817 25.0976 33.5805 22.6004 35.2176 20.9778C38.4826 17.7419 36.3532 12.1639 31.7647 11.933C29.4639 11.8172 27.5031 10.2228 26.9181 7.99208Z" fill="#2C2C2E"/>
</g>
</svg>
