<svg width="45" height="48" viewBox="0 0 45 48" fill="none" xmlns="http://www.w3.org/2000/svg">
<g id="image" clip-path="url(#clip0_1_408)">
<path id="Vector" d="M3.08141 27.7233C3.58348 26.5473 3.84245 25.2798 3.84245 23.9986C3.84245 22.7174 3.58348 21.4498 3.08141 20.2738L2.87501 19.7865C2.38787 18.6471 2.17095 17.4084 2.24159 16.169C2.31223 14.9297 2.66852 13.7242 3.28188 12.6492C3.89524 11.5742 4.74866 10.6594 5.77389 9.97804C6.79912 9.29668 7.96767 8.86763 9.18606 8.72528L9.71053 8.65563C10.9664 8.50741 12.1792 8.10143 13.2747 7.46247C14.3701 6.82351 15.3253 5.96507 16.0818 4.93961L16.3913 4.51318C17.1243 3.51748 18.0771 2.70884 19.1735 2.15181C20.27 1.59476 21.4797 1.30469 22.7066 1.30469C23.9334 1.30469 25.1433 1.59476 26.2398 2.15181C27.3362 2.70884 28.2889 3.51748 29.022 4.51318L29.3315 4.93961C30.0879 5.96507 31.043 6.82351 32.1386 7.46247C33.2341 8.10143 34.4468 8.50741 35.7027 8.65563L36.2272 8.72528C37.4471 8.86518 38.6177 9.29245 39.6449 9.97279C40.6723 10.6531 41.5279 11.5676 42.1431 12.643C42.7584 13.7184 43.1162 14.9246 43.1877 16.1652C43.2593 17.4057 43.0428 18.646 42.5554 19.7865L42.3491 20.2738C41.847 21.4498 41.5879 22.7174 41.5879 23.9986C41.5879 25.2798 41.847 26.5473 42.3491 27.7233L42.5554 28.2107V28.3151C43.0377 29.4519 43.2494 30.6875 43.1731 31.9222C43.097 33.157 42.735 34.3562 42.1167 35.4234C41.4983 36.4906 40.6408 37.3957 39.6133 38.0656C38.5858 38.7356 37.417 39.1518 36.2014 39.2806L35.6769 39.3415C34.421 39.4897 33.2083 39.8957 32.1128 40.5346C31.0174 41.1736 30.0622 42.0321 29.3057 43.0576L28.9962 43.4927C28.262 44.4869 27.3089 45.2939 26.2127 45.8499C25.1163 46.4058 23.9071 46.6953 22.6808 46.6953C21.4546 46.6953 20.2454 46.4058 19.149 45.8499C18.0528 45.2939 17.0996 44.4869 16.3655 43.4927L16.056 43.0576C15.2995 42.0321 14.3443 41.1736 13.2489 40.5346C12.1534 39.8957 10.9406 39.4897 9.68477 39.3415L9.16024 39.2806C7.94155 39.1369 6.773 38.7068 5.74786 38.0244C4.72272 37.3421 3.86943 36.4265 3.25621 35.3509C2.643 34.2753 2.28685 33.0694 2.21619 31.8298C2.14552 30.5899 2.3623 29.3505 2.84924 28.2107L3.08141 27.7233ZM31.6015 9.22134C31.3312 7.99581 30.7152 6.87606 29.8283 5.99813C28.9412 5.1202 27.8215 4.52188 26.605 4.2758C25.3884 4.02972 24.1274 4.14649 22.9753 4.61193C21.823 5.07737 20.8291 5.87145 20.1143 6.89772C19.5055 7.7749 18.636 8.43266 17.6324 8.77541C16.6289 9.11818 15.5436 9.12807 14.5341 8.80362C13.3501 8.42246 12.082 8.39849 10.8848 8.73473C9.68756 9.07097 8.61296 9.75286 7.79228 10.697C6.97159 11.6412 6.44032 12.8069 6.26336 14.0517C6.0864 15.2964 6.27138 16.5664 6.79575 17.7065C7.24125 18.6797 7.36893 19.7712 7.16022 20.8228C6.9515 21.8743 6.41728 22.8313 5.63503 23.5548C4.71944 24.4026 4.06723 25.5015 3.75786 26.7179C3.44849 27.9342 3.49535 29.2154 3.89268 30.4053C4.29001 31.5951 5.02068 32.6424 5.99567 33.4193C6.97065 34.1964 8.14781 34.6695 9.38381 34.7813C10.439 34.8769 11.4366 35.3108 12.2315 36.0198C13.0263 36.7288 13.5769 37.6761 13.8033 38.7237C14.0734 39.9491 14.6894 41.0688 15.5765 41.9468C16.4634 42.8247 17.5832 43.423 18.7998 43.6692C20.0162 43.9152 21.2772 43.7985 22.4294 43.333C23.5816 42.8676 24.5755 42.0735 25.2904 41.0473C25.8992 40.1701 26.7687 39.5123 27.7722 39.1695C28.7757 38.8268 29.8611 38.8169 30.8705 39.1414C32.0546 39.5226 33.3227 39.5464 34.5198 39.2101C35.7171 38.874 36.7917 38.1921 37.6124 37.248C38.433 36.3037 38.9643 35.1381 39.1412 33.8933C39.3183 32.6486 39.1332 31.3786 38.6089 30.2385C38.166 29.2648 38.0399 28.174 38.2485 27.123C38.457 26.0721 38.9896 25.1153 39.7696 24.3902C40.6852 23.5425 41.3374 22.4434 41.6468 21.227C41.9561 20.0107 41.9093 18.7295 41.5119 17.5396C41.1147 16.3497 40.384 15.3025 39.409 14.5255C38.4341 13.7486 37.2569 13.2755 36.0208 13.1637C34.9652 13.0694 33.967 12.636 33.1719 11.9267C32.3767 11.2175 31.8265 10.2695 31.6015 9.22134Z" stroke="#333C6A" stroke-width="1.94531" stroke-miterlimit="10"/>
</g>
<defs>
<clipPath id="clip0_1_408">
<rect width="44.0938" height="47.9844" fill="white" transform="translate(0.90625 0.0078125)"/>
</clipPath>
</defs>
</svg>
