<svg width="31" height="32" viewBox="0 0 31 32" fill="none" xmlns="http://www.w3.org/2000/svg">
<g id="Frame">
<path id="Vector" d="M5.52523 2.10961C4.53034 2.49651 3.68899 3.01238 2.84763 3.85374C2.00627 4.68895 1.49041 5.53645 1.10351 6.5252C0.728887 7.48324 0.477094 8.58253 0.403399 10.1916C0.329703 11.8006 0.311279 12.3165 0.311279 16.4188C0.311279 20.5212 0.329703 21.0371 0.403399 22.646C0.477094 24.255 0.735028 25.3544 1.10351 26.3125C1.49041 27.3074 2.00627 28.1486 2.84763 28.99C3.68899 29.8313 4.53034 30.3472 5.52523 30.7341C6.48327 31.1087 7.58256 31.3605 9.19158 31.4342C10.8006 31.5079 11.3165 31.5264 15.4188 31.5264C19.5212 31.5264 20.0371 31.5079 21.6461 31.4342C23.2551 31.3605 24.3544 31.1026 25.3125 30.7341C26.3073 30.3472 27.1487 29.8313 27.9901 28.99C28.8314 28.1486 29.3473 27.3074 29.7342 26.3125C30.1088 25.3544 30.3606 24.255 30.4343 22.646C30.508 21.0371 30.5264 20.5212 30.5264 16.4188C30.5264 12.3165 30.508 11.8006 30.4343 10.1916C30.3606 8.58253 30.1027 7.48324 29.7342 6.5252C29.3473 5.53645 28.8314 4.68895 27.9962 3.85374C27.1548 3.01238 26.3135 2.49651 25.3186 2.10961C24.3606 1.73499 23.2613 1.4832 21.6523 1.4095C20.0432 1.33581 19.5274 1.31738 15.425 1.31738C11.3226 1.31738 10.8067 1.33581 9.19772 1.4095C7.58256 1.47706 6.48327 1.73499 5.52523 2.10961ZM21.5233 4.12395C22.9972 4.19151 23.7956 4.43716 24.3299 4.64596C25.0361 4.92232 25.5397 5.24781 26.0678 5.77596C26.596 6.30411 26.9215 6.80769 27.1978 7.51394C27.4066 8.04824 27.6523 8.8466 27.7198 10.3205C27.7935 11.9111 27.8058 12.3902 27.8058 16.4249C27.8058 20.4597 27.7874 20.9389 27.7198 22.5294C27.6523 24.0033 27.4066 24.8017 27.1978 25.336C26.9215 26.0423 26.596 26.5457 26.0678 27.0739C25.5397 27.6021 25.0361 27.9276 24.3299 28.204C23.7956 28.4128 22.9972 28.6585 21.5233 28.726C19.9327 28.7997 19.4537 28.812 15.4188 28.812C11.384 28.812 10.905 28.7936 9.31441 28.726C7.8405 28.6585 7.04213 28.4128 6.50784 28.204C5.80159 27.9276 5.29801 27.6021 4.76985 27.0739C4.2417 26.5457 3.91622 26.0423 3.63986 25.336C3.43105 24.8017 3.1854 24.0033 3.11785 22.5294C3.04415 20.9389 3.03187 20.4597 3.03187 16.4249C3.03187 12.3902 3.05029 11.9111 3.11785 10.3205C3.1854 8.8466 3.43105 8.04824 3.63986 7.51394C3.91622 6.80769 4.2417 6.30411 4.76985 5.77596C5.29801 5.24781 5.80159 4.92232 6.50784 4.64596C7.04213 4.43716 7.8405 4.19151 9.31441 4.12395C10.905 4.05026 11.384 4.03797 15.4188 4.03797C19.4537 4.03797 19.9327 4.05026 21.5233 4.12395Z" fill="#EEEEEE"/>
<path id="Vector_2" d="M7.66272 16.4247C7.66272 20.7113 11.1387 24.1811 15.4192 24.1811C19.6996 24.1811 23.1756 20.7052 23.1756 16.4247C23.1756 12.1442 19.7058 8.66821 15.4192 8.66821C11.1325 8.66821 7.66272 12.1381 7.66272 16.4247ZM20.455 16.4247C20.455 19.2067 18.2012 21.4606 15.4192 21.4606C12.6372 21.4606 10.3833 19.2067 10.3833 16.4247C10.3833 13.6427 12.6372 11.3889 15.4192 11.3889C18.2012 11.3889 20.455 13.6427 20.455 16.4247Z" fill="#EEEEEE"/>
<path id="Vector_3" d="M23.4889 10.1729C24.4895 10.1729 25.3006 9.3618 25.3006 8.36124C25.3006 7.36068 24.4895 6.54956 23.4889 6.54956C22.4884 6.54956 21.6772 7.36068 21.6772 8.36124C21.6772 9.3618 22.4884 10.1729 23.4889 10.1729Z" fill="#EEEEEE"/>
</g>
</svg>
