<svg width="32" height="34" viewBox="0 0 32 34" fill="none" xmlns="http://www.w3.org/2000/svg">
<path d="M25.4493 1.68457H7.10735C3.49136 1.68457 0.556641 4.61929 0.556641 8.23528V26.5772C0.556641 30.1932 3.49136 33.1279 7.10735 33.1279H25.4493C29.0653 33.1279 32 30.1932 32 26.5772V8.23528C32 4.61929 29.0653 1.68457 25.4493 1.68457ZM11.0378 26.5772H7.10735V12.1657H11.0378V26.5772ZM9.07256 10.5018C7.80172 10.5018 6.77981 9.46681 6.77981 8.19597C6.77981 6.92514 7.80172 5.89012 9.07256 5.89012C10.3434 5.89012 11.3653 6.92514 11.3653 8.19597C11.3653 9.46681 10.3434 10.5018 9.07256 10.5018ZM26.7595 26.5772H22.829C22.829 26.5772 22.829 21.2449 22.829 19.2404C22.829 14.8252 17.5885 15.1659 17.5885 19.2404C17.5885 21.389 17.5885 26.5772 17.5885 26.5772H13.6581V12.1657H17.5885V14.4846C19.4227 11.0913 26.7595 10.8425 26.7595 17.7339C26.7595 21.4678 26.7595 26.5772 26.7595 26.5772Z" fill="#EEEEEE"/>
</svg>
