<svg width="56" height="49" viewBox="0 0 56 49" fill="none" xmlns="http://www.w3.org/2000/svg">
<g id="image" clip-path="url(#clip0_1_384)">
<path id="Vector" d="M14.2224 10.3333L27.6339 2.66956L41.0454 10.3333V25.6335L27.6339 33.2972L14.2224 25.6335V10.3333Z" stroke="#333C6A" stroke-width="1.94586" stroke-miterlimit="10"/>
<path id="Vector_2" d="M27.6323 29.5713L17.4565 23.7572" stroke="#333C6A" stroke-width="1.94586" stroke-miterlimit="10"/>
<path id="Vector_3" d="M37.8079 12.212V23.7569" stroke="#333C6A" stroke-width="1.94586" stroke-miterlimit="10"/>
<path id="Vector_4" d="M17.4565 12.212L27.6323 6.39612" stroke="#333C6A" stroke-width="1.94586" stroke-miterlimit="10"/>
<path id="Vector_5" d="M40.9824 10.395L47.2429 6.94287" stroke="#333C6A" stroke-width="1.94586" stroke-miterlimit="10"/>
<path id="Vector_6" d="M4.92366 8.67644C6.80575 8.67644 8.33147 7.15072 8.33147 5.26863C8.33147 3.38656 6.80575 1.86084 4.92366 1.86084C3.04159 1.86084 1.51587 3.38656 1.51587 5.26863C1.51587 7.15072 3.04159 8.67644 4.92366 8.67644Z" stroke="#333C6A" stroke-width="1.94586" stroke-miterlimit="10"/>
<path id="Vector_7" d="M27.6322 47.2642C29.5142 47.2642 31.0401 45.7385 31.0401 43.8565C31.0401 41.9743 29.5142 40.4486 27.6322 40.4486C25.7502 40.4486 24.2244 41.9743 24.2244 43.8565C24.2244 45.7385 25.7502 47.2642 27.6322 47.2642Z" stroke="#333C6A" stroke-width="1.94586" stroke-miterlimit="10"/>
<path id="Vector_8" d="M50.3424 8.67644C52.2244 8.67644 53.7503 7.15072 53.7503 5.26863C53.7503 3.38656 52.2244 1.86084 50.3424 1.86084C48.4604 1.86084 46.9346 3.38656 46.9346 5.26863C46.9346 7.15072 48.4604 8.67644 50.3424 8.67644Z" stroke="#333C6A" stroke-width="1.94586" stroke-miterlimit="10"/>
<path id="Vector_9" d="M14.2209 10.395L7.96045 6.94287" stroke="#333C6A" stroke-width="1.94586" stroke-miterlimit="10"/>
<path id="Vector_10" d="M27.6323 33.2974V40.4467" stroke="#333C6A" stroke-width="1.94586" stroke-miterlimit="10"/>
</g>
<defs>
<clipPath id="clip0_1_384">
<rect width="55.7812" height="47.9978" fill="white" transform="translate(0.21875 0.563599)"/>
</clipPath>
</defs>
</svg>
