<svg width="102" height="112" viewBox="0 0 102 112" fill="none" xmlns="http://www.w3.org/2000/svg">
<g id="svg">
<path id="Vector" d="M98.8384 64.3962L98.8434 64.4075L98.8489 64.4185C105.048 76.8101 97.1114 91.7664 83.3002 93.3405C80.0149 93.5583 76.8235 94.5276 73.9721 96.1736C71.1208 97.8195 68.6857 100.098 66.8544 102.833C58.8585 113.573 42.76 113.573 34.7704 102.833C32.9393 100.098 30.5042 97.8192 27.6529 96.1732C24.8015 94.5272 21.6102 93.5581 18.3251 93.3405C5.02559 91.786 -3.02047 77.8528 2.28314 65.559C3.73761 62.6058 4.49407 59.3579 4.49407 56.0659C4.49407 52.7738 3.73758 49.5258 2.28305 46.5725C-3.02857 34.2788 5.02573 20.3448 18.3264 18.791C24.5126 18.3506 30.3113 15.3508 34.0152 10.315L34.0228 10.3047L34.0298 10.2941C41.6626 -1.27634 58.5854 -1.87243 66.854 9.29742C68.6852 12.0332 71.1206 14.312 73.9721 15.9581C76.8233 17.604 80.0145 18.5733 83.2995 18.7912C96.6015 20.3457 104.646 34.2798 99.341 46.5739C96.6306 52.1495 96.3197 58.6734 98.8384 64.3962Z" fill="url(#paint0_linear_1_468)" fill-opacity="0.8" stroke="#333C6A"/>
<path id="Vector_2" d="M14.98 50.3144C14.71 49.9244 14.54 49.4944 14.46 49.0244C14.38 48.5544 14.4 48.0744 14.52 47.5744C14.62 47.1544 14.77 46.7744 14.98 46.4344C15.19 46.0944 15.44 45.8144 15.73 45.5844C16.02 45.3544 16.35 45.1844 16.7 45.0744C17.05 44.9644 17.42 44.9244 17.81 44.9544L17.48 46.3644C17.26 46.3844 17.06 46.4244 16.88 46.4944C16.69 46.5644 16.53 46.6644 16.38 46.7844C16.23 46.9044 16.1 47.0644 16 47.2444C15.9 47.4244 15.82 47.6244 15.76 47.8544C15.66 48.2644 15.68 48.6544 15.81 49.0244C15.94 49.3944 16.19 49.7144 16.54 49.9944C16.9 50.2744 17.36 50.4744 17.93 50.6044C18.51 50.7344 19.02 50.7644 19.46 50.6744C19.9 50.5844 20.26 50.4044 20.55 50.1344C20.83 49.8644 21.02 49.5044 21.12 49.0844C21.21 48.6944 21.21 48.3444 21.13 48.0244C21.05 47.7044 20.89 47.4344 20.65 47.2144C20.42 47.0044 20.13 46.8644 19.78 46.7744L19.37 48.5244L18.29 48.2744L19.01 45.1744L19.93 45.3844C20.58 45.5344 21.12 45.8044 21.53 46.1944C21.94 46.5844 22.22 47.0544 22.36 47.5944C22.5 48.1444 22.5 48.7344 22.36 49.3644C22.2 50.0644 21.89 50.6444 21.45 51.1044C21.01 51.5644 20.46 51.8644 19.81 52.0344C19.16 52.1944 18.43 52.1844 17.62 51.9944C17 51.8544 16.47 51.6344 16.03 51.3444C15.59 51.0544 15.23 50.7144 14.97 50.3244L14.98 50.3144ZM26.71 39.1544L25.68 38.5644L23.83 41.7844L21.97 40.7244L23.67 37.7644L22.64 37.1744L20.94 40.1344L19.09 39.0744L20.92 35.8844L19.89 35.2944L17.35 39.7144L24.15 43.6144L26.7 39.1644L26.71 39.1544ZM27.97 28.0644L27.14 27.2144L22.67 31.5844L23.5 32.4344L25.23 30.7444L29.87 35.5044L30.88 34.5244L26.24 29.7644L27.97 28.0744V28.0644ZM43.13 26.5444C43.23 26.1344 43.2 25.7144 43.05 25.2844C42.93 24.9644 42.77 24.7044 42.57 24.5144C42.36 24.3244 42.13 24.1744 41.86 24.0844C41.59 23.9944 41.31 23.9344 41.01 23.9144C40.71 23.8944 40.41 23.9144 40.11 23.9444L39.36 24.0244C39.2 24.0444 39.03 24.0544 38.86 24.0544C38.69 24.0544 38.53 24.0444 38.38 24.0044C38.23 23.9744 38.1 23.9144 37.99 23.8244C37.88 23.7344 37.79 23.6144 37.74 23.4644C37.68 23.2744 37.67 23.0944 37.72 22.9144C37.77 22.7344 37.88 22.5644 38.05 22.4044C38.22 22.2444 38.44 22.1244 38.72 22.0144C39.12 21.8744 39.47 21.8444 39.78 21.9244C40.09 22.0144 40.32 22.2044 40.47 22.5044L41.75 22.0444C41.59 21.6344 41.34 21.3044 41 21.0644C40.66 20.8244 40.26 20.6844 39.8 20.6444C39.34 20.6044 38.85 20.6844 38.32 20.8744C37.8 21.0644 37.38 21.3144 37.03 21.6444C36.69 21.9744 36.46 22.3444 36.34 22.7544C36.22 23.1644 36.24 23.5844 36.4 24.0244C36.59 24.5544 36.92 24.9144 37.39 25.1044C37.86 25.2944 38.42 25.3544 39.08 25.2944L40 25.2044C40.29 25.1744 40.55 25.1644 40.78 25.1844C41.01 25.1944 41.2 25.2444 41.36 25.3344C41.52 25.4244 41.63 25.5544 41.7 25.7544C41.77 25.9644 41.78 26.1744 41.7 26.3744C41.63 26.5744 41.5 26.7644 41.32 26.9244C41.13 27.0944 40.89 27.2244 40.6 27.3344C40.32 27.4344 40.06 27.4844 39.8 27.4844C39.55 27.4844 39.32 27.4244 39.12 27.3044C38.92 27.1844 38.76 27.0044 38.65 26.7544L37.34 27.2244C37.54 27.7044 37.81 28.0744 38.17 28.3344C38.53 28.5944 38.95 28.7344 39.44 28.7544C39.93 28.7744 40.45 28.6844 41.03 28.4844C41.62 28.2744 42.09 27.9944 42.44 27.6644C42.79 27.3344 43.02 26.9544 43.12 26.5544L43.13 26.5444ZM51.84 19.8444L51.76 18.6544L45.52 19.0544L45.6 20.2444L48.02 20.0944L48.44 26.7244L49.85 26.6344L49.43 20.0044L51.85 19.8544L51.84 19.8444ZM54.89 26.8044L53.41 26.4944L57.7 19.3844L59.42 19.7444L60.53 27.9744L59.05 27.6644L58.81 25.6444L55.93 25.0444L54.9 26.8044H54.89ZM56.52 24.0044L58.66 24.4444L58.26 21.1344H58.2L56.52 23.9944V24.0044ZM70.22 24.4344C70.48 24.8144 70.61 25.2144 70.62 25.6544C70.62 26.0844 70.51 26.5244 70.27 26.9644C70.03 27.4044 69.73 27.7344 69.37 27.9644C69.01 28.1944 68.6 28.2844 68.14 28.2644C68.09 28.2644 68.03 28.2544 67.98 28.2444V31.7844L66.6 31.0244L66.62 27.7644L65.35 27.0744L63.98 29.5944L62.73 28.9144L66.47 22.0244L69.05 23.4244C69.58 23.7144 69.97 24.0444 70.23 24.4244L70.22 24.4344ZM69.19 25.5644C69.19 25.3344 69.11 25.1244 68.97 24.9244C68.82 24.7244 68.59 24.5444 68.28 24.3744L67.14 23.7544L65.9 26.0444L67.05 26.6744C67.36 26.8444 67.64 26.9344 67.88 26.9544C68.12 26.9744 68.34 26.9244 68.53 26.8144C68.72 26.7044 68.88 26.5244 69.01 26.2744C69.14 26.0344 69.21 25.7944 69.21 25.5644H69.19ZM72.31 35.7044L76.99 30.9844L78.71 32.6944L79.55 31.8544L75.11 27.4544L74.27 28.2944L75.99 30.0044L71.31 34.7244L72.31 35.7144V35.7044ZM78.02 43.9744L79.06 43.3944L77.25 40.1644L79.12 39.1144L80.79 42.0944L81.83 41.5144L80.16 38.5344L82.02 37.4944L83.82 40.7044L84.86 40.1244L82.37 35.6744L75.53 39.5044L78.04 43.9744H78.02ZM79.08 46.5344L86.72 44.7844L87.33 47.4244C87.5 48.1844 87.5 48.8744 87.33 49.4844C87.15 50.1044 86.81 50.6244 86.31 51.0444C85.81 51.4644 85.16 51.7744 84.37 51.9544C83.57 52.1344 82.86 52.1444 82.22 51.9844C81.58 51.8244 81.04 51.4944 80.61 51.0144C80.18 50.5344 79.87 49.9044 79.69 49.1244L79.1 46.5344H79.08ZM80.59 47.6444L80.85 48.7844C80.97 49.3144 81.17 49.7344 81.45 50.0444C81.73 50.3544 82.08 50.5544 82.51 50.6444C82.94 50.7344 83.45 50.7144 84.03 50.5744C84.62 50.4444 85.08 50.2344 85.42 49.9744C85.77 49.7044 85.99 49.3744 86.11 48.9844C86.22 48.5944 86.22 48.1344 86.1 47.6144L85.83 46.4344L80.59 47.6344V47.6444ZM87.5 63.3944C87.42 62.9244 87.25 62.4944 86.99 62.1044C86.73 61.7044 86.37 61.3644 85.93 61.0744C85.49 60.7844 84.96 60.5644 84.34 60.4244C83.54 60.2344 82.81 60.2144 82.15 60.3744C81.5 60.5344 80.95 60.8444 80.5 61.2944C80.05 61.7444 79.75 62.3244 79.59 63.0344C79.44 63.6644 79.44 64.2544 79.58 64.8044C79.72 65.3544 80 65.8244 80.41 66.2144C80.82 66.6044 81.35 66.8744 82.01 67.0344L82.93 67.2544L83.66 64.1644L82.58 63.9044L82.17 65.6544C81.82 65.5644 81.53 65.4244 81.31 65.2144C81.07 64.9944 80.91 64.7244 80.83 64.4044C80.75 64.0844 80.75 63.7344 80.85 63.3444C80.95 62.9144 81.14 62.5644 81.43 62.2944C81.71 62.0244 82.08 61.8444 82.52 61.7544C82.96 61.6644 83.47 61.6944 84.05 61.8244C84.62 61.9644 85.08 62.1644 85.44 62.4444C85.8 62.7244 86.04 63.0444 86.17 63.4144C86.3 63.7844 86.32 64.1744 86.22 64.5844C86.17 64.8144 86.09 65.0144 85.98 65.1944C85.88 65.3744 85.75 65.5244 85.6 65.6444C85.45 65.7644 85.28 65.8644 85.1 65.9344C84.91 66.0044 84.71 66.0444 84.5 66.0644L84.17 67.4744C84.56 67.5044 84.93 67.4744 85.28 67.3544C85.63 67.2344 85.96 67.0744 86.25 66.8444C86.54 66.6144 86.79 66.3344 87 65.9944C87.21 65.6544 87.36 65.2844 87.46 64.8544C87.58 64.3544 87.6 63.8744 87.52 63.4044L87.5 63.3944ZM75.23 73.2244L76.26 73.8244L78.11 70.6144L79.96 71.6844L78.25 74.6444L79.28 75.2444L80.99 72.2844L82.83 73.3444L80.99 76.5244L82.02 77.1244L84.57 72.7144L77.78 68.7944L75.21 73.2344L75.23 73.2244ZM76.68 81.6444L72.05 76.8744L71.04 77.8544L75.67 82.6244L73.93 84.3144L74.76 85.1644L79.25 80.8044L78.42 79.9544L76.68 81.6444ZM64.49 87.2344C64.02 87.0444 63.46 86.9744 62.8 87.0344L61.88 87.1144C61.59 87.1444 61.33 87.1444 61.1 87.1344C60.87 87.1244 60.68 87.0744 60.52 86.9844C60.36 86.8944 60.25 86.7544 60.18 86.5644C60.11 86.3544 60.1 86.1444 60.18 85.9444C60.25 85.7444 60.38 85.5544 60.57 85.3944C60.76 85.2244 61 85.0944 61.29 84.9844C61.57 84.8844 61.84 84.8344 62.09 84.8444C62.35 84.8444 62.57 84.9144 62.77 85.0344C62.97 85.1544 63.13 85.3444 63.24 85.5944L64.56 85.1244C64.37 84.6444 64.09 84.2744 63.73 84.0144C63.37 83.7544 62.95 83.6144 62.46 83.5944C61.97 83.5644 61.45 83.6544 60.87 83.8644C60.28 84.0744 59.81 84.3444 59.46 84.6844C59.11 85.0144 58.88 85.3844 58.78 85.7944C58.68 86.2044 58.7 86.6244 58.86 87.0544C58.97 87.3744 59.13 87.6344 59.34 87.8244C59.54 88.0144 59.78 88.1644 60.05 88.2544C60.32 88.3444 60.6 88.4044 60.89 88.4244C61.19 88.4444 61.49 88.4244 61.79 88.3944L62.54 88.3244C62.7 88.3044 62.87 88.2944 63.04 88.2944C63.21 88.2944 63.37 88.3144 63.52 88.3444C63.67 88.3744 63.8 88.4444 63.91 88.5244C64.02 88.6044 64.1 88.7344 64.16 88.8844C64.22 89.0744 64.23 89.2544 64.18 89.4344C64.13 89.6144 64.01 89.7844 63.84 89.9444C63.67 90.1044 63.45 90.2244 63.17 90.3244C62.77 90.4644 62.42 90.4944 62.11 90.4044C61.8 90.3144 61.57 90.1244 61.42 89.8244L60.13 90.2844C60.29 90.6944 60.53 91.0244 60.87 91.2644C61.21 91.5044 61.61 91.6444 62.07 91.6844C62.53 91.7244 63.02 91.6544 63.55 91.4644C64.07 91.2844 64.5 91.0244 64.84 90.6944C65.18 90.3644 65.41 89.9944 65.53 89.5844C65.65 89.1744 65.63 88.7544 65.48 88.3144C65.29 87.7844 64.96 87.4244 64.5 87.2344H64.49ZM53.86 92.2344L53.46 85.6044L52.05 85.6844L52.45 92.3244L50.03 92.4744L50.1 93.6644L56.34 93.2844L56.27 92.0944L53.85 92.2444L53.86 92.2344ZM47.03 85.5044L48.51 85.8144L44.2 92.9144L42.48 92.5544L41.38 84.3144L42.86 84.6244L43.1 86.6444L45.98 87.2444L47.01 85.4844L47.03 85.5044ZM45.39 88.3044L43.26 87.8544L43.65 91.1644H43.71L45.39 88.3044ZM37.94 82.6844L39.19 83.3644L35.43 90.2344L32.85 88.8244C32.32 88.5344 31.93 88.2044 31.67 87.8244C31.41 87.4444 31.28 87.0344 31.28 86.6044C31.28 86.1744 31.39 85.7344 31.63 85.3044C31.87 84.8644 32.17 84.5344 32.54 84.3144C32.9 84.0944 33.31 83.9944 33.77 84.0144C33.82 84.0144 33.88 84.0244 33.93 84.0344V80.4944L35.32 81.2544L35.29 84.5144L36.56 85.2044L37.94 82.6844ZM36 86.2344L34.85 85.6044C34.54 85.4344 34.26 85.3444 34.02 85.3144C33.78 85.2844 33.56 85.3344 33.37 85.4544C33.18 85.5644 33.02 85.7444 32.89 85.9944C32.76 86.2344 32.69 86.4744 32.69 86.7044C32.69 86.9344 32.77 87.1444 32.91 87.3444C33.06 87.5444 33.29 87.7244 33.6 87.8944L34.74 88.5144L35.99 86.2344H36ZM29.61 76.5544L24.92 81.2644L23.21 79.5544L22.37 80.3944L26.8 84.8144L27.64 83.9744L25.93 82.2644L30.63 77.5644L29.63 76.5644L29.61 76.5544ZM23.92 68.2544L22.88 68.8344L24.68 72.0744L22.81 73.1144L21.15 70.1344L20.11 70.7144L21.77 73.6944L19.91 74.7244L18.12 71.5144L17.08 72.0944L19.56 76.5444L26.41 72.7344L23.92 68.2544ZM22.86 65.6944L15.22 67.4244L14.62 64.7844C14.45 64.0244 14.45 63.3344 14.63 62.7244C14.81 62.1144 15.15 61.5944 15.66 61.1644C16.16 60.7444 16.81 60.4444 17.61 60.2644C18.41 60.0844 19.12 60.0744 19.76 60.2444C20.4 60.4144 20.93 60.7344 21.37 61.2144C21.8 61.6944 22.1 62.3244 22.28 63.1044L22.87 65.6944H22.86ZM21.35 64.5844L21.09 63.4444C20.97 62.9144 20.77 62.4944 20.5 62.1744C20.22 61.8644 19.87 61.6644 19.44 61.5744C19.01 61.4844 18.5 61.5044 17.92 61.6344C17.34 61.7644 16.87 61.9644 16.52 62.2344C16.17 62.5044 15.94 62.8344 15.83 63.2244C15.72 63.6144 15.72 64.0744 15.83 64.5944L16.1 65.7744L21.35 64.5844Z" fill="#333C6A"/>
<path id="Vector_3" fill-rule="evenodd" clip-rule="evenodd" d="M51.5109 64.4842L60.992 55.0031L62.0527 56.0638L51.2915 66.8249L50.7612 67.3553L50.2309 66.8249L39.4697 56.0638L40.5304 55.0031L50.0109 64.4837V45.4846H51.5109V64.4842Z" fill="#333C6A"/>
</g>
<defs>
<linearGradient id="paint0_linear_1_468" x1="50.8108" y1="0.757641" x2="50.8108" y2="111.388" gradientUnits="userSpaceOnUse">
<stop stop-color="white"/>
<stop offset="1" stop-color="white" stop-opacity="0.46"/>
</linearGradient>
</defs>
</svg>
