<svg width="40" height="33" viewBox="0 0 40 33" fill="none" xmlns="http://www.w3.org/2000/svg">
<g id="Frame">
<path id="Vector" d="M35.7163 8.82581C35.74 9.1537 35.74 9.48463 35.74 9.81555C35.74 19.9468 27.6841 31.628 12.9535 31.628C8.59841 31.634 4.33373 30.4386 0.6698 28.185C1.30135 28.257 1.93676 28.2936 2.57277 28.2943C6.1798 28.2985 9.68329 27.1402 12.519 25.0063C10.8476 24.9769 9.22769 24.4479 7.88606 23.4932C6.54444 22.5386 5.5483 21.2062 5.03713 19.6826C6.2369 19.9046 7.47388 19.8598 8.65278 19.5522C6.84055 19.2015 5.21072 18.2617 4.0396 16.8923C2.86848 15.5227 2.22811 13.8077 2.22707 12.0379V11.9408C3.34101 12.5343 4.58746 12.8633 5.86175 12.9002C4.16718 11.8152 2.96812 10.153 2.50854 8.25167C2.04897 6.35039 2.36341 4.35291 3.38788 2.6657C5.3986 5.03396 7.90712 6.97099 10.7506 8.35103C13.5941 9.73108 16.7089 10.5234 19.893 10.6763C19.4948 9.0329 19.6734 7.30973 20.4012 5.77332C21.1291 4.23691 22.3655 2.9729 23.9193 2.17686C25.4731 1.38081 27.2576 1.09708 28.9968 1.36957C30.736 1.64207 32.3329 2.45559 33.5405 3.68429C35.3336 3.3456 37.053 2.71618 38.6246 1.8232C38.027 3.59836 36.7759 5.10515 35.1041 6.06302C36.6914 5.88339 38.2415 5.47711 39.703 4.85771C38.6301 6.39605 37.2802 7.73963 35.7163 8.82581Z" fill="#EEEEEE"/>
</g>
</svg>
